PathFileType	4	(X/Y/Z)	Patient4_TMGait_0pt2_03_left_14.trc.trc
DataRate	CameraRate	NumFrames	NumMarkers	Units	OrigDataRate	OrigDataStartFrame	OrigNumFrames
45.602605863192	45.602605863192	6	33	mm	45.602605863192	1	       141
Frame#	Time	Sacral			L.Shoulder			Chest			R.Shoulder			Neck			R.ASIS			L.ASIS			R.Thigh.Superior			R.Thigh.Lateral			R.Thigh.Inferior			R.Patella			L.Thigh.Superior			L.Thigh.Lateral			L.Thigh.Inferior			L.Patella			L.Shank.Superior			L.Shank.Lateral			L.Shank.Inferior			R.Shank.Superior			R.Shank.Lateral			R.Shank.Inferior			R.Heel			R.Midfoot.Superior			R.Midfoot.Lateral			R.Toe			L.Heel			L.Midfoot.Lateral			L.Midfoot.Superior			L.Toe			L.Elbow			L.Wrist			R.Elbow			R.Wrist			
		X1	Y1	Z1	X2	Y2	Z2	X3	Y3	Z3	X4	Y4	Z4	X5	Y5	Z5	X6	Y6	Z6	X7	Y7	Z7	X8	Y8	Z8	X9	Y9	Z9	X10	Y10	Z10	X11	Y11	Z11	X12	Y12	Z12	X13	Y13	Z13	X14	Y14	Z14	X15	Y15	Z15	X16	Y16	Z16	X17	Y17	Z17	X18	Y18	Z18	X19	Y19	Z19	X20	Y20	Z20	X21	Y21	Z21	X22	Y22	Z22	X23	Y23	Z23	X24	Y24	Z24	X25	Y25	Z25	X26	Y26	Z26	X27	Y27	Z27	X28	Y28	Z28	X29	Y29	Z29	X30	Y30	Z30	X31	Y31	Z31	X32	Y32	Z32	X33	Y33	Z33	

1	28.840000000000	880.594116182893	1000.265573868530	572.898801976663	1086.520703829330	1426.719098413291	402.724459172810	1165.866511368606	1355.841764648653	574.745825395662	1063.702557632365	1433.116091535423	735.702898060479	1048.776133405762	1488.843596397484	556.843327662926	1108.062370171891	936.363312439454	700.197420382579	1102.279395247786	955.527559925460	424.938011542650	1159.348530183562	737.986954347434	652.566474857629	1083.811287732480	619.830731355971	704.686391658355	1159.967008017916	575.511732980666	618.963682680138	1163.855880538001	482.298374033198	620.691208484739	1164.841581381375	753.708772933626	440.963234964371	1091.272582446364	627.397511696283	358.624543374701	1194.391795041990	558.660322145331	419.667776034131	1195.817317716153	471.820993008667	410.888363620747	1127.874131497354	411.415186768342	398.007424543119	991.183115059964	372.917956612077	335.148366700216	971.701842713262	241.639283315104	383.391254349774	1123.180939743585	394.590227311316	624.174587553110	1043.314746176099	296.297613250235	684.112544109384	1070.745979176401	200.586157413680	615.296891368031	920.157815638962	44.523089102347	586.428741472444	1091.953634611793	96.107787975446	619.719244471019	1004.530541382977	37.626427390920	660.095123922501	1212.573453181249	43.328976538662	647.302277059456	778.220241468984	184.536192913883	403.930996219777	839.178930554044	134.637862057903	328.713838440528	942.679227082017	137.248769765037	356.715303479551	1018.465358721088	29.837570293545	335.813514023613	1143.320834529293	1080.222894604879	280.215838318515	1345.167716427740	912.978808270964	312.003943613544	975.411813166476	1096.256967072895	860.994314537281	1062.551998085496	846.372717826940	880.393463202957	
2	28.861928571429	879.137750089872	996.222379445410	578.077297186951	1082.002968754696	1421.455158446860	402.333677011705	1164.703651871356	1351.789924753284	573.138070181336	1065.993602352763	1429.754777747344	735.921215589256	1047.840244650660	1485.011000121916	556.830846597869	1108.703485287664	933.176882432184	701.580029022294	1098.757979609545	952.444316090192	426.789506360655	1161.979333968905	736.025382535149	652.621668875004	1088.587551714716	616.803942518046	704.506196663018	1164.377033434013	573.782223445316	617.465267841676	1169.120495051941	479.390053869653	618.649096250062	1167.273834475726	755.321735124944	445.353232257614	1100.201593680772	627.617377977718	362.067158450531	1204.457872161194	561.963513924438	425.551487804258	1208.439067867797	474.261753662576	415.823573182759	1139.639067515757	413.182942312947	401.682859332900	1001.708784442613	377.602236720903	339.435701207265	980.584194092261	245.877692153633	386.009828095156	1126.419530476943	391.932759318394	622.684019505560	1044.981369541282	295.237082356159	683.246296468349	1069.626475916551	199.240277542107	614.402907348705	915.973230845084	44.975415035971	586.314024113719	1087.921385443882	96.066019581868	619.421103460396	1000.325352340202	37.838329521342	659.971535158165	1208.390591448458	42.774375713902	647.351475149526	786.319888147453	192.564892425069	407.073846756161	845.626424071005	142.358933080872	330.712683746607	949.407033095993	141.678796805308	358.164177042627	1021.519326870715	30.586077976269	334.746792826304	1125.562782650553	1071.063629794826	285.762600069295	1302.290944750170	885.184310817302	310.371620749955	991.672910980513	1091.124525019751	864.966175975485	1097.878099548807	851.504475213832	883.635915336786	
3	28.883857142857	877.610357946406	992.214444314985	583.336381541120	1077.339803841400	1416.171177885719	401.916459833197	1163.510876070639	1347.696439638585	571.414615520565	1068.432926926905	1426.387808460488	736.071305977324	1046.892434270706	1481.163309788625	556.779509982832	1109.309336011937	929.963110026987	702.937056488195	1094.973683646779	949.249278865696	428.650626117874	1164.475190185122	734.012221705422	652.647322277916	1093.230347318117	613.760159724745	704.319321785920	1168.628876421118	572.024472970463	615.956536472994	1174.217657296268	476.464783684143	616.603713386358	1169.454438667191	757.018390967747	449.549780545482	1108.724275219500	627.899802917935	365.470324608111	1214.227766231025	565.424657535533	431.133180935197	1220.831876587014	476.950886063077	420.477322987201	1151.413502901185	415.062152200813	405.195139372323	1012.248402422993	381.688690311524	343.912446741520	990.302840844502	249.396821420720	388.774994991893	1129.496380929053	389.257340666643	621.175972158753	1046.509943268879	294.170580011402	682.386925881589	1068.355091970234	197.891867975385	613.522833385288	911.623135766265	45.450576965418	586.217444727669	1083.713026688611	96.001968527150	619.113512049954	995.955867580457	38.057123095524	659.861890857688	1204.040085283283	42.221183998737	647.401550589560	795.621672808515	198.419204667534	410.868625810428	853.370588292522	148.590327554200	333.101292387945	957.497152939135	145.495015498476	359.710867748096	1026.819512296281	31.570518666168	333.285991425178	1106.770361544802	1062.146995266724	291.150192815471	1257.394084273680	858.363921969719	308.946684661689	1008.903687990735	1086.114758360898	868.811557848345	1134.929635269556	858.139638915962	886.216828717690	
4	28.905785714286	876.049652821824	988.463559169756	588.510867039715	1072.623190757453	1411.125942686242	401.483386501759	1162.315132796325	1343.758349811822	569.577388012439	1071.002626145398	1423.195851756592	736.106378567696	1045.956216900770	1477.495271471194	556.677095889066	1109.835088940262	926.870321269801	704.170676304552	1090.979319674963	946.103566295845	430.421708813917	1166.638725427160	732.022059942397	652.610893723199	1097.443598756861	610.843266178277	704.129066937994	1172.411373879818	570.310350228214	614.486372926242	1178.786450697041	473.655175663925	614.634746141440	1171.156756242332	758.781584940167	453.305990934806	1116.280258877072	628.269872574434	368.664826857437	1223.124092080250	568.966461984129	436.083552150141	1232.338199701197	479.894480926426	424.573078980832	1162.693251001962	417.044573369047	408.347430371212	1022.444355124983	384.757905991159	348.402942656634	1000.883496274316	251.794904402801	391.586189839681	1132.144712408494	386.687957360036	619.710429996098	1047.720578472486	293.145079691694	681.576286205551	1066.874040164903	196.604314543183	612.701442951505	907.192501903705	45.928610054586	586.153897807579	1079.412525962416	95.924408627771	618.825285385933	991.509314957317	38.272757422556	659.779141268869	1199.606094940435	41.693710576022	647.449834767195	806.386878668813	201.028445431290	415.255911259978	862.817613685896	152.482365037015	335.840710714817	967.309117441023	148.304852069939	361.310881643960	1035.193205787591	32.860207125949	331.444452043075	1087.207018222182	1054.031241289012	296.105108386248	1211.465766893877	834.051984462026	307.885812130339	1026.891228207161	1081.579180918763	872.304222172420	1172.911883009713	866.869066125119	887.656847097592	
5	28.927714285714	874.489860457174	985.190345202152	593.468302775425	1067.912360813973	1406.574927820070	401.048735708856	1161.135296885306	1340.175463948827	567.620109124667	1073.699819232853	1420.365458184858	735.982194891520	1045.046076760238	1474.203644344737	556.517019025162	1110.244445592155	924.049011104866	705.185127221676	1086.821911473471	943.193661595145	432.003157622646	1168.290100928875	730.132162663387	652.479877537830	1100.948959166275	608.193058291792	703.938665233644	1175.424777933209	568.709324681474	613.093018919252	1182.476808479957	471.086602456880	612.807618662610	1172.184190176774	760.611530270829	456.425004511321	1122.399913430744	628.759869147279	371.505357492629	1230.643989269281	572.520922241646	440.153073447679	1242.388847486198	483.102531429251	427.907418215266	1173.051351914363	419.134354049601	410.986525083525	1032.057563642758	386.467112468973	352.697090728766	1012.385979723884	252.779636687180	394.315490390312	1134.098085153130	384.344251968142	618.342632050065	1048.425757627201	292.205441007113	680.852040515205	1065.108611503321	195.437493672083	611.976672455281	902.739917650656	46.386022378379	586.137532023481	1075.079708188455	95.842968774109	618.582286666514	987.046464428591	38.473470233674	659.734522746558	1195.146978028181	41.213230638952	647.493054553522	818.909270961785	199.642187192699	420.041949139908	874.389870115369	153.398181154482	338.811855953098	979.184814056595	149.792010318180	362.902433528331	1047.298709007297	34.466728860174	329.316609934809	1067.082219422250	1047.241103427694	300.409678075688	1165.431918417795	813.505650669278	307.324661570133	1045.484980785737	1077.876945844985	875.251899319192	1211.094265867698	878.290559758315	887.514331395678	
6	28.949642857143	872.961974878147	982.597582091362	598.113613791664	1063.233051030609	1402.753503630909	400.628979892640	1159.980989059136	1337.138467962702	565.530162433210	1076.531057324291	1418.075922985265	735.659998630680	1044.165943696468	1471.473686937942	556.298549882175	1110.515175881941	921.642592262893	705.893763618224	1082.549230775323	940.721804140298	433.301709550409	1169.278666502998	728.417410824258	652.223072148865	1103.505314956923	605.936823136296	703.751825828626	1177.400992142629	567.284436370076	611.802540942725	1184.972777703833	468.869577381000	611.170890449671	1172.388523223379	762.520263435017	458.779654143500	1126.746093145930	629.405294500829	373.881847660186	1236.396294791224	576.026259590348	443.199019753586	1250.542266616327	486.578258218387	430.373446303271	1182.158413100900	421.344842227763	413.019518095672	1040.975799481007	386.599753116546	356.560587656286	1024.862438646151	252.219939012824	396.814456908777	1135.108847216145	382.334242025367	617.121019080017	1048.444014636819	291.391550993274	680.246146778086	1062.974465216324	194.444237639761	611.377791410317	898.297741450337	46.796235187909	586.180074809470	1070.750796230512	95.768538260684	618.406743236343	982.601530062122	38.646027734344	659.736212568070	1190.695740982104	40.796853884748	647.527651549053	833.443826997879	193.958280107680	424.895690597196	888.446680033384	151.015183733943	341.814177681797	993.373386107203	149.770688779211	364.408371516423	1063.504379198089	36.350686361956	327.083431058951	1046.569737432430	1042.225384543643	303.925374705558	1120.143514272323	797.594062557963	307.362680900843	1064.578275530275	1075.349969760249	877.506593641737	1248.797802059681	892.928992073747	885.429730460149	
